<?xml version="1.0" encoding="UTF-8" standalone="no"?>
<!-- Created with Inkscape (http://www.inkscape.org/) -->

<svg
   xmlns:dc="http://purl.org/dc/elements/1.1/"
   xmlns:cc="http://creativecommons.org/ns#"
   xmlns:rdf="http://www.w3.org/1999/02/22-rdf-syntax-ns#"
   xmlns:svg="http://www.w3.org/2000/svg"
   xmlns="http://www.w3.org/2000/svg"
   xmlns:sodipodi="http://sodipodi.sourceforge.net/DTD/sodipodi-0.dtd"
   xmlns:inkscape="http://www.inkscape.org/namespaces/inkscape"
   width="103.39445mm"
   height="148.48703mm"
   viewBox="0 0 366.35828 526.13514"
   id="svg2"
   version="1.1"
   inkscape:version="0.91 r13725"
   sodipodi:docname="player.svg">
  <defs
     id="defs4">
    <mask
       maskUnits="userSpaceOnUse"
       id="mask4535">
      <ellipse
         style="opacity:1;fill:#e6e6e6;fill-opacity:1;fill-rule:nonzero;stroke:none;stroke-width:3;stroke-miterlimit:4;stroke-dasharray:none;stroke-opacity:1"
         id="ellipse4537"
         cx="912.93445"
         cy="-359.28033"
         rx="74.508972"
         ry="122.69389"
         transform="matrix(-0.23012886,0.97316017,-0.91626241,0.40057859,0,0)" />
    </mask>
    <mask
       maskUnits="userSpaceOnUse"
       id="mask4554">
      <ellipse
         style="opacity:1;fill:#e6e6e6;fill-opacity:1;fill-rule:nonzero;stroke:none;stroke-width:3;stroke-miterlimit:4;stroke-dasharray:none;stroke-opacity:1"
         id="ellipse4556"
         cx="-60.546886"
         cy="670.52039"
         rx="113.77563"
         ry="54.573833"
         transform="matrix(0.83894587,-0.54421486,0.50892826,0.86080894,0,0)" />
    </mask>
    <mask
       maskUnits="userSpaceOnUse"
       id="mask4573">
      <ellipse
         style="opacity:1;fill:#e6e6e6;fill-opacity:1;fill-rule:nonzero;stroke:none;stroke-width:3;stroke-miterlimit:4;stroke-dasharray:none;stroke-opacity:1"
         id="ellipse4575"
         cx="-688.83124"
         cy="-525.29663"
         rx="61.188213"
         ry="96.753677"
         transform="matrix(-0.81171222,-0.58405759,0.79884112,-0.60154207,0,0)" />
    </mask>
    <mask
       maskUnits="userSpaceOnUse"
       id="mask4592">
      <ellipse
         style="opacity:1;fill:#e6e6e6;fill-opacity:1;fill-rule:nonzero;stroke:none;stroke-width:3;stroke-miterlimit:4;stroke-dasharray:none;stroke-opacity:1"
         id="ellipse4594"
         cx="-981.75647"
         cy="795.40936"
         rx="100.31911"
         ry="89.901871"
         transform="matrix(0.68692436,-0.72672892,0.99970572,0.02425838,0,0)" />
    </mask>
    <mask
       maskUnits="userSpaceOnUse"
       id="mask4611">
      <ellipse
         style="opacity:1;fill:#e6e6e6;fill-opacity:1;fill-rule:nonzero;stroke:none;stroke-width:3;stroke-miterlimit:4;stroke-dasharray:none;stroke-opacity:1"
         id="ellipse4613"
         cx="672.24945"
         cy="1054.0841"
         rx="91.502953"
         ry="85.247765"
         transform="matrix(0.96113669,-0.27607294,-0.48653768,0.87365959,0,0)" />
    </mask>
  </defs>
  <sodipodi:namedview
     id="base"
     pagecolor="#ffffff"
     bordercolor="#666666"
     borderopacity="1.0"
     inkscape:pageopacity="0.0"
     inkscape:pageshadow="2"
     inkscape:zoom="1.4"
     inkscape:cx="-12.663299"
     inkscape:cy="368.4344"
     inkscape:document-units="px"
     inkscape:current-layer="layer1"
     showgrid="false"
     showguides="true"
     inkscape:window-width="1855"
     inkscape:window-height="1056"
     inkscape:window-x="65"
     inkscape:window-y="24"
     inkscape:window-maximized="1"
     fit-margin-top="0"
     fit-margin-left="0"
     fit-margin-right="0"
     fit-margin-bottom="0" />
  <metadata
     id="metadata7">
    <rdf:RDF>
      <cc:Work
         rdf:about="">
        <dc:format>image/svg+xml</dc:format>
        <dc:type
           rdf:resource="http://purl.org/dc/dcmitype/StillImage" />
        <dc:title></dc:title>
      </cc:Work>
    </rdf:RDF>
  </metadata>
  <g
     inkscape:label="Layer 1"
     inkscape:groupmode="layer"
     id="layer1"
     transform="translate(0.55443375,-31.610714)">
    <rect
       style="opacity:1;fill:#d45500;fill-opacity:1;fill-rule:nonzero;stroke:none;stroke-width:3;stroke-miterlimit:4;stroke-dasharray:none;stroke-opacity:1"
       id="rect5143-0-6"
       width="341.43155"
       height="14.800344"
       x="306.17944"
       y="402.37436"
       transform="matrix(1,0,-0.6825196,0.73086729,0,0)" />
    <rect
       style="opacity:1;fill:#d45500;fill-opacity:1;fill-rule:nonzero;stroke:none;stroke-width:3;stroke-miterlimit:4;stroke-dasharray:none;stroke-opacity:1"
       id="rect5143-0"
       width="341.43155"
       height="14.800344"
       x="309.11203"
       y="421.86136"
       transform="matrix(1,0,-0.6825196,0.73086729,0,0)" />
    <rect
       style="opacity:1;fill:#803300;fill-opacity:1;fill-rule:nonzero;stroke:none;stroke-width:3;stroke-miterlimit:4;stroke-dasharray:none;stroke-opacity:1"
       id="rect5126-6"
       width="18.182743"
       height="86.43367"
       x="295.36951"
       y="334.29974" />
    <rect
       style="opacity:1;fill:#d45500;fill-opacity:1;fill-rule:nonzero;stroke:none;stroke-width:3;stroke-miterlimit:4;stroke-dasharray:none;stroke-opacity:1"
       id="rect5143"
       width="341.43155"
       height="14.25601"
       x="333.91827"
       y="457.77631"
       transform="matrix(1,0,-0.70858013,0.70563036,0,0)" />
    <rect
       style="opacity:1;fill:#803300;fill-opacity:1;fill-rule:nonzero;stroke:none;stroke-width:3;stroke-miterlimit:4;stroke-dasharray:none;stroke-opacity:1"
       id="rect5126"
       width="18.182743"
       height="84.658478"
       x="42.882118"
       y="337.12097" />
    <path
       style="fill:#004455;fill-rule:evenodd;stroke:none;stroke-width:1px;stroke-linecap:butt;stroke-linejoin:miter;stroke-opacity:1"
       d="m 267.5373,327.53743 -44.848,22.14951 -7.652,-1.79237 -31.42858,-30.35715 51.78572,-32.14285 25.71429,29.28571 z"
       id="path5064-3"
       inkscape:connector-curvature="0"
       sodipodi:nodetypes="ccccccc" />
    <path
       style="fill:#004455;fill-rule:evenodd;stroke:none;stroke-width:1px;stroke-linecap:butt;stroke-linejoin:miter;stroke-opacity:1"
       d="m 72.89444,325.57647 44.848,22.14951 7.652,-1.79237 31.42858,-30.35715 -51.78572,-32.14285 -25.714289,27.51794 z"
       id="path5064"
       inkscape:connector-curvature="0"
       sodipodi:nodetypes="ccccccc" />
    <path
       style="fill:#2c89a0;fill-rule:evenodd;stroke:none;stroke-width:1px;stroke-linecap:butt;stroke-linejoin:miter;stroke-opacity:1"
       d="m 245.94677,138.18544 c -5.89286,14.64285 -31.87239,29.7087 -41.23949,27.80638 -4.15333,-8.1897 1.06722,-9.30561 14.34694,-22.26928 13.27971,-12.96367 20.90624,-21.16166 26.89255,-5.5371 z"
       id="path4371-5"
       inkscape:connector-curvature="0"
       sodipodi:nodetypes="cczc" />
    <path
       style="fill:#2c89a0;fill-rule:evenodd;stroke:none;stroke-width:1px;stroke-linecap:butt;stroke-linejoin:miter;stroke-opacity:1"
       d="m 50.000002,168.79078 c 5.89286,14.64285 25.81147,34.75946 35.17857,32.85714 4.15333,-8.1897 -1.06722,-9.30561 -14.34694,-22.26928 -13.27971,-12.96367 -8.15306,-17.37358 -20.83163,-10.58786 z"
       id="path4371"
       inkscape:connector-curvature="0"
       sodipodi:nodetypes="cczc" />
    <path
       style="opacity:1;fill:#ffb380;fill-opacity:1;fill-rule:nonzero;stroke:none;stroke-width:18;stroke-miterlimit:4;stroke-dasharray:none;stroke-opacity:1"
       d="m 145.27228,65.50665 2.7781,-0.57824 c 10.4918,-2.18379 21.47237,4.15786 24.21447,14.33215 l 5.82891,21.62766 c 1.5607,5.79083 -1.6643,23.9071 -8.84062,26.23372 -5.86652,1.90197 -9.50088,1.59005 -13.76025,-1.38605 -8.78473,-6.13802 -16.6486,-12.95835 -19.57162,-23.08215 L 131.61022,87.7225 c -2.92302,-10.1238 3.17026,-20.03207 13.66206,-22.21585 z"
       id="rect3353"
       inkscape:connector-curvature="0"
       sodipodi:nodetypes="sssssssss" />
    <path
       style="opacity:1;fill:#ffccaa;fill-opacity:1;fill-rule:nonzero;stroke:none;stroke-width:18;stroke-miterlimit:4;stroke-dasharray:none;stroke-opacity:1"
       d="m 111.02945,139.75239 c 8.58026,6.01362 11.02081,18.64728 3.65557,26.84391 l -52.570559,58.50476 c -7.36523,8.19662 -8.73983,9.00487 -17.3201,2.99125 -8.58025,-6.01361 -14.81961,-14.6305 -9.72699,-21.12962 l 48.64198,-62.07618 c 6.79672,-8.67388 18.739839,-11.14773 27.320099,-5.13412 z"
       id="rect4170"
       inkscape:connector-curvature="0"
       sodipodi:nodetypes="sssssss" />
    <path
       style="opacity:1;fill:#ffb380;fill-opacity:1;fill-rule:nonzero;stroke:none;stroke-width:18;stroke-miterlimit:4;stroke-dasharray:none;stroke-opacity:1"
       id="path3361"
       sodipodi:type="arc"
       sodipodi:cx="109.89891"
       sodipodi:cy="115.57965"
       sodipodi:rx="17.67767"
       sodipodi:ry="13.258252"
       sodipodi:start="0"
       sodipodi:end="0.23281296"
       sodipodi:open="true"
       d="m 127.57658,115.57965 a 17.67767,13.258252 0 0 1 -0.47692,3.05889" />
    <path
       style="opacity:1;fill:#ffb380;fill-opacity:1;fill-rule:nonzero;stroke:none;stroke-width:18;stroke-miterlimit:4;stroke-dasharray:none;stroke-opacity:1"
       id="path3363"
       sodipodi:type="arc"
       sodipodi:cx="120.25298"
       sodipodi:cy="115.45337"
       sodipodi:rx="11.364216"
       sodipodi:ry="26.769043"
       sodipodi:start="0"
       sodipodi:end="0.23281296"
       sodipodi:open="true"
       d="m 131.6172,115.45337 a 11.364216,26.769043 0 0 1 -0.30659,6.17603" />
    <path
       style="opacity:1;fill:#ffb380;fill-opacity:1;fill-rule:nonzero;stroke:none;stroke-width:18;stroke-miterlimit:4;stroke-dasharray:none;stroke-opacity:1"
       id="path3365"
       sodipodi:type="arc"
       sodipodi:cx="6.1057458"
       sodipodi:cy="97.775696"
       sodipodi:rx="18.940361"
       sodipodi:ry="21.718279"
       sodipodi:start="0"
       sodipodi:end="0.23281296"
       sodipodi:open="true"
       d="M 25.046107,97.775696 A 18.940361,21.718279 0 0 1 24.53512,102.78644" />
    <path
       style="fill:#ac9393;fill-rule:evenodd;stroke:none;stroke-width:1px;stroke-linecap:butt;stroke-linejoin:miter;stroke-opacity:1"
       d="m 193.62721,342.10138 c -243.370521,373.50722 -121.685261,186.75361 0,0 z"
       id="path4264-6-2-9"
       inkscape:connector-curvature="0"
       sodipodi:nodetypes="cc" />
    <path
       style="opacity:1;fill:#ffccaa;fill-opacity:1;fill-rule:nonzero;stroke:none;stroke-width:18;stroke-miterlimit:4;stroke-dasharray:none;stroke-opacity:1"
       d="m 121.34846,271.48063 18.96779,5.96857 c 12.94501,4.07339 23.01968,21.77996 12.01011,32.06908 l -31.91406,29.82565 c -11.00957,10.28912 -17.58158,23.04786 -26.641568,12.94429 L 86.040887,343.668 c -0.23482,-2.71496 -1.453191,-4.28602 -3.056317,-5.22624 -4.87283,-2.85788 -15.825817,8.19375 -10.992359,2.58382 0,0 -1.5814,-13.84178 2.417363,-17.30484 l 34.439436,-29.82565 c 11.39111,-9.86506 -0.44557,-26.48785 12.49945,-22.41446 z"
       id="rect4239"
       inkscape:connector-curvature="0"
       sodipodi:nodetypes="ssssscsssss" />
    <path
       style="fill:#fff6d5;fill-rule:evenodd;stroke:none;stroke-width:1px;stroke-linecap:butt;stroke-linejoin:miter;stroke-opacity:1"
       d="m 135.64723,104.90836 c 0.73793,2.56322 13.60223,17.6828 25.16494,14.99952 5.50984,-1.27863 13.69789,-1.43703 16.83015,-17.55743 l 4.9102,4.49852 c 0,0 -1.64239,10.22012 -10.05252,16.02011 -8.41013,5.79999 -17.82811,5.94763 -25.68781,1.20275 -7.8597,-4.74489 -16.17406,-14.33954 -16.17406,-14.33954 z"
       id="path3359"
       inkscape:connector-curvature="0"
       sodipodi:nodetypes="cscczzcc" />
    <path
       style="opacity:1;fill:#ffccaa;fill-opacity:1;fill-rule:nonzero;stroke:none;stroke-width:18;stroke-miterlimit:4;stroke-dasharray:none;stroke-opacity:1"
       d="m 194.42969,78.057686 c 0.63912,15.753158 -21.08349,30.123484 -42.35102,32.097014 -21.26753,1.97354 -34.02638,-9.19707 -34.6655,-24.950229 -0.63913,-15.753157 13.58349,-21.805201 34.85103,-23.778726 21.26751,-1.97353 41.52636,0.878783 42.16549,16.631941 z"
       id="path3336"
       inkscape:connector-curvature="0"
       sodipodi:nodetypes="sssss" />
    <path
       style="opacity:1;fill:#ffccaa;fill-opacity:1;fill-rule:nonzero;stroke:none;stroke-width:18;stroke-miterlimit:4;stroke-dasharray:none;stroke-opacity:1"
       d="m 194.87765,79.155974 c 0.63913,15.753158 -23.1038,29.600646 -44.37132,31.574176 0.81222,-38.307926 2.89474,-14.455031 2.20583,-48.6636 21.26752,-1.97353 41.52637,1.336267 42.16549,17.089424 z"
       id="path3336-7"
       inkscape:connector-curvature="0"
       sodipodi:nodetypes="sccs" />
    <path
       style="opacity:1;fill:#ffccaa;fill-opacity:1;fill-rule:nonzero;stroke:none;stroke-width:18;stroke-miterlimit:4;stroke-dasharray:none;stroke-opacity:1"
       d="m 190.78162,115.76062 c -9.75859,5.60913 -12.41386,17.2631 -4.15759,25.03832 l 34.43297,32.4267 c 8.25626,7.7752 -1.4885,4.47061 8.27011,-1.13852 9.75858,-5.60912 31.76169,-15.00944 25.94767,-21.05029 l -28.37041,-29.47727 c -7.75952,-8.06225 -26.36415,-11.40806 -36.12275,-5.79894 z"
       id="rect4170-6"
       inkscape:connector-curvature="0"
       sodipodi:nodetypes="sssssss" />
    <path
       style="fill:#37abc8;fill-rule:evenodd;stroke:none;stroke-width:1px;stroke-linecap:butt;stroke-linejoin:miter;stroke-opacity:1"
       d="m 222.3765,269.37022 c -7.54769,-35.13738 -6.48555,-46.92065 2.00189,-76.15909 3.7113,-12.45476 23.84991,-21.64785 -16.3215,-40.49206 0,0 25.50983,-25.36012 30.88155,-23.19038 5.37172,2.16974 6.06845,9.60256 6.06845,9.60256 0,0 -6.72777,-26.7297 -30.996,-26.36372 -24.26819,0.36598 -33.23696,-7.01813 -33.23696,-7.01813 l -0.71424,1.07142 c 0,0 0.53007,8.70062 -7.06429,14.41859 0,0 -0.36489,-0.50286 -9.30017,4.08765 -8.93528,4.59051 -12.82453,-1.87023 -20.28828,-7.31088 -7.46375,-5.44067 -13.31367,-9.89673 -13.31367,-9.89673 l -2.2728,2.02032 c 0,0 4.50549,7.5478 -19.7627,7.18182 -24.26823,-0.36598 -60.29042,51.67573 -60.29042,51.67573 0,0 2.96957,-3.70294 9.35144,0.69331 6.38187,4.39624 26.15947,31.49875 26.15947,31.49875 15.542881,-10.79864 10.70071,-15.87895 14.41201,-3.42419 8.48744,29.23844 22.40672,39.59314 14.85903,74.73052 16.19,5.40573 32.9495,-1.90616 50.01508,-2.22883 15.50476,-9.19041 67.3598,34.24072 59.81211,-0.89666 z"
       id="path3355-3"
       inkscape:connector-curvature="0"
       sodipodi:nodetypes="zcczczccczzcczczccccz" />
    <path
       style="opacity:1;fill:#ffccaa;fill-opacity:1;fill-rule:nonzero;stroke:none;stroke-width:18;stroke-miterlimit:4;stroke-dasharray:none;stroke-opacity:1"
       d="m 263.5101,161.88884 c 1.01019,7.09904 -27.1648,17.65885 -33.74217,14.13484 l -19.49765,-10.44642 c -6.57736,-3.52401 -2.76332,3.53318 -3.77352,-3.56586 -1.0102,-7.09903 -0.61947,-14.83685 4.92886,-15.27195 l 32.42636,-4.21163 1.46191,1.5541 c 5.08922,5.41018 17.18601,10.70788 18.19621,17.80692 z"
       id="rect4170-6-3"
       inkscape:connector-curvature="0"
       sodipodi:nodetypes="ssssscss"
       inkscape:transform-center-x="-6.5659915"
       inkscape:transform-center-y="0.75761441" />
    <path
       style="opacity:1;fill:#fdd7c4;fill-opacity:1;fill-rule:nonzero;stroke:none;stroke-width:18;stroke-miterlimit:4;stroke-dasharray:none;stroke-opacity:1"
       d="m 234.33418,175.82464 c 8.44355,-5.2877 4.59122,-20.93429 1.57711,-24.10888 L 180.73016,93.596764 c -6.99854,-7.371143 -18.44166,-9.802167 -26.88539,-4.514407 -8.44373,5.287747 -1.76477,14.565893 4.97403,22.175213 l 43.91101,49.58347 c 6.7388,7.60932 23.16067,20.27139 31.60437,14.9836 z"
       id="rect4170-9-7"
       inkscape:connector-curvature="0"
       sodipodi:nodetypes="sssssss" />
    <path
       style="opacity:1;fill:#2c89a0;fill-opacity:1;fill-rule:nonzero;stroke:none;stroke-width:3;stroke-miterlimit:4;stroke-dasharray:none;stroke-opacity:1"
       d="m 109.58283,269.44076 c 19.22582,7.17357 36.53384,-4.04062 54.54823,-1.01016 l 0.24535,42.29018 -40.51403,37.35959 c 0,0 6.62452,-3.87236 7.71698,-9.58533 2.5284,-13.22219 -4.54103,-32.30502 -27.28343,-33.63976 -32.568799,-1.91145 -30.966551,21.01659 -30.966551,21.01659 l 7.117602,-17.00711 z"
       id="rect4975"
       inkscape:connector-curvature="0"
       sodipodi:nodetypes="ccccssccc" />
    <path
       style="opacity:1;fill:#fdd7c4;fill-opacity:1;fill-rule:nonzero;stroke:none;stroke-width:18;stroke-miterlimit:4;stroke-dasharray:none;stroke-opacity:1"
       d="m 39.409944,195.44501 c -8.44355,5.2877 -0.65263,26.8428 -3.59741,23.6038 l 49.62529,54.58347 c 6.83756,7.52071 18.441666,9.80217 26.885396,4.51441 8.44373,-5.28775 1.76477,-14.5659 -4.97403,-22.17522 L 63.438174,206.388 c -6.7388,-7.60932 -15.58453,-16.23078 -24.02823,-10.94299 z"
       id="rect4170-9"
       inkscape:connector-curvature="0"
       sodipodi:nodetypes="sssssss" />
    <path
       style="opacity:1;fill:#ffccaa;fill-opacity:1;fill-rule:nonzero;stroke:none;stroke-width:18;stroke-miterlimit:4;stroke-dasharray:none;stroke-opacity:1"
       d="m 234.47484,356.32604 20.48302,-3.94826 c 13.32547,-2.56859 19.15768,-23.57427 7.46442,-33.07923 l -35.44959,-28.8155 c -11.69326,-9.50496 -17.58158,-23.04786 -26.64157,-12.94429 l -7.72985,8.62022 c -0.641,18.07231 -23.02242,10.0822 -11.63131,19.94726 l 34.43944,29.82565 c 11.39111,9.86506 18.84254,20.43712 19.06544,20.39415 z"
       id="rect4239-6"
       inkscape:connector-curvature="0"
       sodipodi:nodetypes="ssssscsss" />
    <path
       style="opacity:1;fill:#2c89a0;fill-opacity:1;fill-rule:nonzero;stroke:none;stroke-width:3;stroke-miterlimit:4;stroke-dasharray:none;stroke-opacity:1"
       d="m 221.17404,271.22224 c -19.22582,7.17358 -40.57445,-6.06093 -58.58884,-3.03047 l 0.76481,39.25974 52.65163,40.80321 c -6.36603,-6.39082 -5.11563,-8.92103 -4.13857,-15.47618 2.01985,-13.55129 27.13429,-25.97261 35.12397,-27.26088 11.85452,-1.91145 13.52168,9.38099 13.52168,9.38099 l -2.25053,-5.02103 -20.15727,-22.88216 z"
       id="rect4975-5"
       inkscape:connector-curvature="0"
       sodipodi:nodetypes="ccccsscccc" />
    <path
       style="opacity:1;fill:#fdd7c4;fill-opacity:1;fill-rule:nonzero;stroke:none;stroke-width:18;stroke-miterlimit:4;stroke-dasharray:none;stroke-opacity:1"
       d="m 88.552423,325.03333 c -9.802346,-1.7797 -23.846582,9.93945 -23.55872,14.30751 l 4.90863,74.48431 c 0.668394,10.14232 7.026939,19.66723 16.829458,21.447 9.802513,1.77978 11.116158,-9.57658 11.261426,-19.73985 0.31553,-22.07513 21.179513,-38.88562 5.232303,-64.79681 -5.327537,-8.65624 -4.87058,-23.92243 -14.673097,-25.70216 z"
       id="rect4170-9-2"
       inkscape:connector-curvature="0"
       sodipodi:nodetypes="sssssss" />
    <path
       style="opacity:1;fill:#e5ff80;fill-opacity:1;fill-rule:nonzero;stroke:none;stroke-width:3;stroke-miterlimit:4;stroke-dasharray:none;stroke-opacity:1"
       d="m 48.18555,447.17506 c 0,0 16.94683,-6.56669 14.41714,-31.97082 19.22448,-1.88218 21.97562,14.44877 28.46239,12.62512 l 6.48677,-1.82365 c 3.37513,-0.94614 4.37029,18.09576 3.07962,20.72051 -1.95807,3.98202 -24.58367,20.70446 -28.18723,20.70446 l -22.11583,0 C 32.115,454.89734 45.15096,450.35754 48.18555,447.17506 Z"
       id="rect4406"
       inkscape:connector-curvature="0"
       sodipodi:nodetypes="cczssscc" />
    <path
       style="opacity:1;fill:#ccff00;fill-opacity:1;fill-rule:nonzero;stroke:none;stroke-width:3;stroke-miterlimit:4;stroke-dasharray:none;stroke-opacity:1"
       d="m 61.60807,430.92829 c 6.16985,2.69721 19.95016,-0.37509 20.29526,5.2345 l 9.13251,-25.88465 -23.09856,-3.44879 z"
       id="rect4742-9"
       inkscape:connector-curvature="0"
       sodipodi:nodetypes="ccccc" />
    <path
       style="opacity:1;fill:#fdd7c4;fill-opacity:1;fill-rule:nonzero;stroke:none;stroke-width:18;stroke-miterlimit:4;stroke-dasharray:none;stroke-opacity:1"
       d="m 252.16267,313.31265 c 9.80235,-1.7797 23.84658,9.93945 23.55872,14.30751 l -4.90863,74.48431 c -0.66839,10.14232 -7.02694,19.66723 -16.82946,21.447 -9.80252,1.77978 -11.11616,-9.57658 -11.26143,-19.73985 -0.31553,-22.07513 -21.17951,-38.88562 -5.2323,-64.79681 5.32754,-8.65624 4.87058,-23.92243 14.6731,-25.70216 z"
       id="rect4170-9-2-9"
       inkscape:connector-curvature="0"
       sodipodi:nodetypes="sssssss" />
    <path
       style="opacity:1;fill:#e5ff80;fill-opacity:1;fill-rule:nonzero;stroke:none;stroke-width:3;stroke-miterlimit:4;stroke-dasharray:none;stroke-opacity:1"
       d="m 293.48905,435.04931 c 0,0 -16.94683,-6.56669 -14.41714,-31.97082 -19.22448,-1.88218 -21.97562,14.44877 -28.46239,12.62512 l -6.48677,-1.82365 c -3.37513,-0.94614 -4.37029,18.09576 -3.07962,20.72051 1.95807,3.98202 24.58367,20.70446 28.18723,20.70446 l 22.11583,0 c 18.21341,-12.53334 5.17745,-17.07314 2.14286,-20.25562 z"
       id="rect4406-1"
       inkscape:connector-curvature="0"
       sodipodi:nodetypes="cczssscc" />
    <path
       style="opacity:1;fill:#ccff00;fill-opacity:1;fill-rule:nonzero;stroke:none;stroke-width:3;stroke-miterlimit:4;stroke-dasharray:none;stroke-opacity:1"
       d="m 280.06653,418.80254 c -6.16985,2.69721 -19.95016,-0.37509 -20.29526,5.2345 l -9.13251,-25.88465 23.09856,-3.44879 z"
       id="rect4742-9-2"
       inkscape:connector-curvature="0"
       sodipodi:nodetypes="ccccc" />
    <path
       style="fill:#552200;fill-rule:evenodd;stroke:#000000;stroke-width:1.07359326px;stroke-linecap:butt;stroke-linejoin:miter;stroke-opacity:1"
       d="m 116.64515,75.90408 0,25.55767 12.83916,-24.321008 7.84616,7.419965 18.54544,-8.656627 12.48251,7.832188 14.97902,1.648881 6.41959,13.19105 7.84615,-28.030983 -4.99301,-15.664373 -15.69231,-8.244408 c 0,0 -16.76223,-4.946644 -20.32866,-4.946644 -3.56643,0 -13.90909,4.122204 -16.04895,5.771085 -2.13986,1.648882 -19.25873,12.366611 -20.6853,12.778831 -1.42658,0.412221 -3.2098,15.664373 -3.2098,15.664373 z"
       id="path5175"
       inkscape:connector-curvature="0" />
  </g>
</svg>
